<svg width="282" height="52" viewBox="0 0 282 52" fill="none" xmlns="http://www.w3.org/2000/svg">
<path d="M38.4612 3.048C39.7093 3.672 40.4293 4.656 40.6213 6C40.8613 7.344 40.5253 8.568 39.6133 9.672C38.9893 10.536 38.1733 11.016 37.1653 11.112C36.2053 11.208 35.2213 11.016 34.2133 10.536C33.0613 10.008 31.8373 9.6 30.5413 9.312C29.2933 9.024 27.9733 8.88 26.5813 8.88C23.9893 8.88 21.6613 9.288 19.5973 10.104C17.5813 10.92 15.8533 12.096 14.4133 13.632C12.9733 15.12 11.8693 16.896 11.1013 18.96C10.3813 21.024 10.0213 23.304 10.0213 25.8C10.0213 28.728 10.4293 31.272 11.2453 33.432C12.1093 35.592 13.2853 37.392 14.7733 38.832C16.2613 40.272 18.0133 41.352 20.0293 42.072C22.0453 42.744 24.2293 43.08 26.5813 43.08C27.8773 43.08 29.1733 42.96 30.4693 42.72C31.7653 42.48 33.0133 42.048 34.2133 41.424C35.2213 40.944 36.2053 40.776 37.1653 40.92C38.1733 41.064 39.0133 41.568 39.6853 42.432C40.6453 43.632 40.9813 44.88 40.6933 46.176C40.4533 47.424 39.7333 48.336 38.5333 48.912C37.2853 49.536 35.9893 50.064 34.6453 50.496C33.3493 50.88 32.0293 51.168 30.6853 51.36C29.3413 51.6 27.9733 51.72 26.5813 51.72C23.1253 51.72 19.8373 51.168 16.7173 50.064C13.6453 48.96 10.8853 47.328 8.43725 45.168C6.03725 43.008 4.14125 40.32 2.74925 37.104C1.35725 33.84 0.66125 30.072 0.66125 25.8C0.66125 22.104 1.28525 18.696 2.53325 15.576C3.82925 12.456 5.62925 9.768 7.93325 7.512C10.2853 5.208 13.0453 3.432 16.2133 2.184C19.3813 0.887997 22.8373 0.239997 26.5813 0.239997C28.6933 0.239997 30.7573 0.479997 32.7733 0.959996C34.7893 1.44 36.6852 2.136 38.4612 3.048ZM83.6019 3.048C84.8499 3.672 85.5699 4.656 85.7619 6C86.0019 7.344 85.6659 8.568 84.7539 9.672C84.1299 10.536 83.3139 11.016 82.3059 11.112C81.3459 11.208 80.3619 11.016 79.3539 10.536C78.2019 10.008 76.9779 9.6 75.6819 9.312C74.4339 9.024 73.1139 8.88 71.7219 8.88C69.1299 8.88 66.8019 9.288 64.7379 10.104C62.7219 10.92 60.9939 12.096 59.5539 13.632C58.1139 15.12 57.0099 16.896 56.2419 18.96C55.5219 21.024 55.1619 23.304 55.1619 25.8C55.1619 28.728 55.5699 31.272 56.3859 33.432C57.2499 35.592 58.4259 37.392 59.9139 38.832C61.4019 40.272 63.1539 41.352 65.1699 42.072C67.1859 42.744 69.3699 43.08 71.7219 43.08C73.0179 43.08 74.3139 42.96 75.6099 42.72C76.9059 42.48 78.1539 42.048 79.3539 41.424C80.3619 40.944 81.3459 40.776 82.3059 40.92C83.3139 41.064 84.1539 41.568 84.8259 42.432C85.7859 43.632 86.1219 44.88 85.8339 46.176C85.5939 47.424 84.8739 48.336 83.6739 48.912C82.4259 49.536 81.1299 50.064 79.7859 50.496C78.4899 50.88 77.1699 51.168 75.8259 51.36C74.4819 51.6 73.1139 51.72 71.7219 51.72C68.2659 51.72 64.9779 51.168 61.8579 50.064C58.7859 48.96 56.0259 47.328 53.5779 45.168C51.1779 43.008 49.2819 40.32 47.8899 37.104C46.4979 33.84 45.8019 30.072 45.8019 25.8C45.8019 22.104 46.4259 18.696 47.6739 15.576C48.9699 12.456 50.7699 9.768 53.0739 7.512C55.4259 5.208 58.1859 3.432 61.3539 2.184C64.5219 0.887997 67.9779 0.239997 71.7219 0.239997C73.8339 0.239997 75.8979 0.479997 77.9139 0.959996C79.9299 1.44 81.8259 2.136 83.6019 3.048ZM130.111 31.776C130.111 35.712 129.223 39.192 127.447 42.216C125.719 45.192 123.367 47.52 120.391 49.2C117.463 50.88 114.175 51.72 110.527 51.72C106.879 51.72 103.567 50.88 100.591 49.2C97.6625 47.52 95.3105 45.192 93.5345 42.216C91.8065 39.192 90.9425 35.712 90.9425 31.776C90.9425 27.84 91.8065 24.384 93.5345 21.408C95.3105 18.384 97.6625 16.032 100.591 14.352C103.567 12.624 106.879 11.76 110.527 11.76C114.175 11.76 117.463 12.624 120.391 14.352C123.367 16.032 125.719 18.384 127.447 21.408C129.223 24.384 130.111 27.84 130.111 31.776ZM121.471 31.776C121.471 29.328 120.967 27.216 119.959 25.44C118.999 23.616 117.679 22.2 115.999 21.192C114.367 20.184 112.543 19.68 110.527 19.68C108.511 19.68 106.663 20.184 104.983 21.192C103.351 22.2 102.031 23.616 101.023 25.44C100.063 27.216 99.5825 29.328 99.5825 31.776C99.5825 34.176 100.063 36.288 101.023 38.112C102.031 39.888 103.351 41.28 104.983 42.288C106.663 43.296 108.511 43.8 110.527 43.8C112.543 43.8 114.367 43.296 115.999 42.288C117.679 41.28 118.999 39.888 119.959 38.112C120.967 36.288 121.471 34.176 121.471 31.776ZM158.264 11.76C161.816 11.76 164.504 12.504 166.328 13.992C168.2 15.48 169.472 17.472 170.144 19.968C170.864 22.416 171.224 25.152 171.224 28.176V46.608C171.224 47.856 170.816 48.912 170 49.776C169.184 50.592 168.152 51 166.904 51C165.656 51 164.624 50.592 163.808 49.776C162.992 48.912 162.584 47.856 162.584 46.608V28.176C162.584 26.592 162.368 25.176 161.936 23.928C161.552 22.632 160.832 21.6 159.776 20.832C158.72 20.064 157.208 19.68 155.24 19.68C153.32 19.68 151.688 20.064 150.344 20.832C149.048 21.6 148.04 22.632 147.32 23.928C146.648 25.176 146.312 26.592 146.312 28.176V46.608C146.312 47.856 145.904 48.912 145.088 49.776C144.272 50.592 143.24 51 141.992 51C140.744 51 139.712 50.592 138.896 49.776C138.08 48.912 137.672 47.856 137.672 46.608V16.872C137.672 15.624 138.08 14.592 138.896 13.776C139.712 12.912 140.744 12.48 141.992 12.48C143.24 12.48 144.272 12.912 145.088 13.776C145.904 14.592 146.312 15.624 146.312 16.872V19.968L145.232 19.752C145.664 18.936 146.288 18.072 147.104 17.16C147.92 16.2 148.88 15.312 149.984 14.496C151.088 13.68 152.336 13.032 153.728 12.552C155.12 12.024 156.632 11.76 158.264 11.76ZM198.707 51.72C194.627 51.72 191.075 50.88 188.051 49.2C185.075 47.472 182.771 45.144 181.139 42.216C179.555 39.288 178.763 35.976 178.763 32.28C178.763 27.96 179.627 24.288 181.355 21.264C183.131 18.192 185.435 15.84 188.267 14.208C191.099 12.576 194.099 11.76 197.267 11.76C199.715 11.76 202.019 12.264 204.179 13.272C206.387 14.28 208.331 15.672 210.011 17.448C211.691 19.176 213.011 21.192 213.971 23.496C214.979 25.8 215.483 28.248 215.483 30.84C215.435 31.992 214.979 32.928 214.115 33.648C213.251 34.368 212.243 34.728 211.091 34.728H183.587L181.427 27.528H207.851L206.267 28.968V27.024C206.171 25.632 205.667 24.384 204.755 23.28C203.891 22.176 202.787 21.312 201.443 20.688C200.147 20.016 198.755 19.68 197.267 19.68C195.827 19.68 194.483 19.872 193.235 20.256C191.987 20.64 190.907 21.288 189.995 22.2C189.083 23.112 188.363 24.336 187.835 25.872C187.307 27.408 187.043 29.352 187.043 31.704C187.043 34.296 187.571 36.504 188.627 38.328C189.731 40.104 191.123 41.472 192.803 42.432C194.531 43.344 196.355 43.8 198.275 43.8C200.051 43.8 201.467 43.656 202.523 43.368C203.579 43.08 204.419 42.744 205.043 42.36C205.715 41.928 206.315 41.568 206.843 41.28C207.707 40.848 208.523 40.632 209.291 40.632C210.347 40.632 211.211 40.992 211.883 41.712C212.603 42.432 212.963 43.272 212.963 44.232C212.963 45.528 212.291 46.704 210.947 47.76C209.699 48.816 207.947 49.752 205.691 50.568C203.435 51.336 201.107 51.72 198.707 51.72ZM240.168 11.76C242.904 11.76 245.28 12.048 247.296 12.624C249.36 13.2 250.944 14.016 252.048 15.072C253.2 16.08 253.776 17.304 253.776 18.744C253.776 19.704 253.488 20.616 252.912 21.48C252.336 22.296 251.496 22.704 250.392 22.704C249.624 22.704 248.976 22.608 248.448 22.416C247.968 22.176 247.536 21.888 247.152 21.552C246.768 21.216 246.312 20.904 245.784 20.616C245.304 20.328 244.56 20.112 243.552 19.968C242.592 19.776 241.872 19.68 241.392 19.68C238.944 19.68 236.856 20.208 235.128 21.264C233.448 22.32 232.152 23.76 231.24 25.584C230.328 27.36 229.872 29.424 229.872 31.776C229.872 34.08 230.328 36.144 231.24 37.968C232.2 39.744 233.496 41.16 235.128 42.216C236.808 43.272 238.728 43.8 240.888 43.8C242.088 43.8 243.12 43.728 243.984 43.584C244.848 43.44 245.568 43.224 246.144 42.936C246.816 42.552 247.416 42.144 247.944 41.712C248.472 41.28 249.264 41.064 250.32 41.064C251.568 41.064 252.528 41.472 253.2 42.288C253.872 43.056 254.208 44.016 254.208 45.168C254.208 46.368 253.536 47.472 252.192 48.48C250.848 49.44 249.072 50.232 246.864 50.856C244.704 51.432 242.352 51.72 239.808 51.72C236.016 51.72 232.728 50.856 229.944 49.128C227.16 47.352 225 44.952 223.464 41.928C221.976 38.904 221.232 35.52 221.232 31.776C221.232 27.84 222.024 24.384 223.608 21.408C225.24 18.384 227.472 16.032 230.304 14.352C233.184 12.624 236.472 11.76 240.168 11.76ZM260.87 13.2H277.934C279.086 13.2 280.046 13.584 280.814 14.352C281.582 15.12 281.966 16.08 281.966 17.232C281.966 18.336 281.582 19.272 280.814 20.04C280.046 20.76 279.086 21.12 277.934 21.12H260.87C259.718 21.12 258.758 20.736 257.99 19.968C257.222 19.2 256.838 18.24 256.838 17.088C256.838 15.984 257.222 15.072 257.99 14.352C258.758 13.584 259.718 13.2 260.87 13.2ZM268.574 4.2C269.822 4.2 270.83 4.632 271.598 5.496C272.414 6.312 272.822 7.344 272.822 8.592V40.632C272.822 41.304 272.942 41.856 273.182 42.288C273.47 42.72 273.83 43.032 274.262 43.224C274.742 43.416 275.246 43.512 275.774 43.512C276.35 43.512 276.878 43.416 277.358 43.224C277.838 42.984 278.39 42.864 279.014 42.864C279.686 42.864 280.286 43.176 280.814 43.8C281.39 44.424 281.678 45.288 281.678 46.392C281.678 47.736 280.934 48.84 279.446 49.704C278.006 50.568 276.446 51 274.766 51C273.758 51 272.63 50.928 271.382 50.784C270.182 50.592 269.03 50.184 267.926 49.56C266.87 48.888 265.982 47.88 265.262 46.536C264.542 45.192 264.182 43.344 264.182 40.992V8.592C264.182 7.344 264.59 6.312 265.406 5.496C266.27 4.632 267.326 4.2 268.574 4.2Z" fill="#395D7C"/>
</svg>
