<svg width="105" height="99" viewBox="0 0 105 99" fill="none" xmlns="http://www.w3.org/2000/svg">
<g filter="url(#filter0_d_188_949)">
<path d="M64.8946 66.7458L64.9207 66.6871C65.121 66.2605 65.3506 65.855 65.6046 65.469L66.5198 64.2835L85.1348 45.8298C86.7616 44.2176 89.3867 44.2274 91.0005 45.8493L91.0607 45.908C92.6745 47.5283 92.6664 50.1517 91.0412 51.7607L75.2647 67.4004C74.9048 67.757 75.0074 68.3628 75.465 68.5827L75.478 68.5892C75.7597 68.7243 76.0952 68.6673 76.3166 68.4491L92.0883 52.8143C94.2932 50.6289 94.3062 47.0625 92.116 44.8625L92.0573 44.8022C91.8408 44.5857 91.6063 44.3935 91.362 44.216V24.2885C91.362 21.8524 93.3389 19.8787 95.78 19.8787H95.8679C98.309 19.8787 100.286 21.8524 100.286 24.2885V46.1294C100.286 49.1584 99.2747 52.0994 97.4133 54.4916L88.6425 65.754C85.8269 69.3708 84.2961 73.8198 84.2961 78.4023V91H64.7139V67.5535C64.7139 67.2734 64.7757 66.9982 64.8946 66.7458Z" fill="url(#paint0_linear_188_949)"/>
<path d="M41.3569 66.7456L41.3292 66.6869C41.1289 66.2603 40.9009 65.8548 40.6469 65.4688L39.7317 64.2833L21.1151 45.8296C19.4899 44.2174 16.8632 44.2272 15.2494 45.8492L15.1908 45.9078C13.5753 47.5281 13.5835 50.1516 15.2103 51.7605L30.9852 67.4002C31.3467 67.7568 31.2441 68.3626 30.7865 68.5825L30.7719 68.589C30.4918 68.7241 30.1547 68.6671 29.9332 68.4489L14.1616 52.8141C11.9567 50.6287 11.9453 47.0624 14.1355 44.8623L14.1925 44.8021C14.4107 44.5855 14.6452 44.3933 14.8879 44.2158V24.2883C14.8879 23.9513 14.8586 23.6223 14.8032 23.3064C14.5915 20.5478 12.2824 18.3738 9.46511 18.3738H9.35601C6.39872 18.3738 4 20.766 4 23.7184V46.1293C4 49.1582 5.01127 52.0992 6.8726 54.4914L15.6435 65.7538C18.4591 69.3706 19.9899 73.8196 19.9899 78.4021V90.9998H41.536V67.5533C41.536 67.2732 41.4741 66.998 41.3569 66.7456Z" fill="url(#paint1_linear_188_949)"/>
<path d="M79.8731 27.0145L57.2571 4.44571L57.2962 4.40663L53.6859 0.802848C52.6192 -0.262165 50.8898 -0.268679 49.8166 0.78982L46.1412 4.40663L46.1803 4.44571L23.5626 27.0145C22.0481 28.5258 22.0481 30.9766 23.5626 32.4878L23.618 32.5432C25.1324 34.0528 27.5865 34.0528 29.1026 32.5432L51.7187 9.97108L74.3347 32.5432C75.8492 34.0528 78.3049 34.0528 79.8178 32.5432L79.8731 32.4878C81.3876 30.9766 81.3876 28.5258 79.8731 27.0145Z" fill="url(#paint2_linear_188_949)"/>
<path d="M50.8949 37.4513V31.6866C50.8949 31.2208 50.5154 30.843 50.0497 30.843H44.2719C43.8062 30.843 43.4268 31.2208 43.4268 31.6866V37.4513C43.4268 37.917 43.8062 38.2949 44.2719 38.2949H50.0497C50.5154 38.2949 50.8949 37.917 50.8949 37.4513Z" fill="url(#paint3_linear_188_949)"/>
<path d="M53.3881 38.2949H59.1659C59.6317 38.2949 60.0095 37.917 60.0095 37.4513V31.6866C60.0095 31.2208 59.6317 30.843 59.1659 30.843H53.3881C52.9208 30.843 52.543 31.2208 52.543 31.6866V37.4513C52.543 37.917 52.9208 38.2949 53.3881 38.2949Z" fill="url(#paint4_linear_188_949)"/>
<path d="M52.543 40.783V46.5477C52.543 47.0135 52.9208 47.3913 53.3881 47.3913H59.1659C59.6317 47.3913 60.0095 47.0135 60.0095 46.5477V40.783C60.0095 40.3173 59.6317 39.9395 59.1659 39.9395H53.3881C52.9208 39.9395 52.543 40.3173 52.543 40.783Z" fill="url(#paint5_linear_188_949)"/>
<path d="M50.0497 39.9395H44.2719C43.8062 39.9395 43.4268 40.3173 43.4268 40.783V46.5477C43.4268 47.0135 43.8062 47.3913 44.2719 47.3913H50.0497C50.5154 47.3913 50.8949 47.0135 50.8949 46.5477V40.783C50.8949 40.3173 50.5154 39.9395 50.0497 39.9395Z" fill="url(#paint6_linear_188_949)"/>
<path d="M41.2495 19.8836H31.6709V4.69009C31.6709 3.93611 32.2832 3.32544 33.0388 3.32544H39.8816C40.6372 3.32544 41.2495 3.93611 41.2495 4.69009V19.8836Z" fill="url(#paint7_linear_188_949)"/>
</g>
<defs>
<filter id="filter0_d_188_949" x="0" y="0" width="104.286" height="99" filterUnits="userSpaceOnUse" color-interpolation-filters="sRGB">
<feFlood flood-opacity="0" result="BackgroundImageFix"/>
<feColorMatrix in="SourceAlpha" type="matrix" values="0 0 0 0 0 0 0 0 0 0 0 0 0 0 0 0 0 0 127 0" result="hardAlpha"/>
<feOffset dy="4"/>
<feGaussianBlur stdDeviation="2"/>
<feComposite in2="hardAlpha" operator="out"/>
<feColorMatrix type="matrix" values="0 0 0 0 0 0 0 0 0 0 0 0 0 0 0 0 0 0 0.25 0"/>
<feBlend mode="normal" in2="BackgroundImageFix" result="effect1_dropShadow_188_949"/>
<feBlend mode="normal" in="SourceGraphic" in2="effect1_dropShadow_188_949" result="shape"/>
</filter>
<linearGradient id="paint0_linear_188_949" x1="82.4999" y1="19.8787" x2="82.4999" y2="91" gradientUnits="userSpaceOnUse">
<stop stop-color="#7BAFD5"/>
<stop offset="1" stop-color="#3A5F7E"/>
</linearGradient>
<linearGradient id="paint1_linear_188_949" x1="22.768" y1="18.3738" x2="22.768" y2="90.9998" gradientUnits="userSpaceOnUse">
<stop stop-color="#7BAFD5"/>
<stop offset="1" stop-color="#3A5F7E"/>
</linearGradient>
<linearGradient id="paint2_linear_188_949" x1="51.7179" y1="0" x2="51.7179" y2="33.6754" gradientUnits="userSpaceOnUse">
<stop stop-color="#7BAFD5"/>
<stop offset="1" stop-color="#3A5F7E"/>
</linearGradient>
<linearGradient id="paint3_linear_188_949" x1="47.1608" y1="30.843" x2="47.1608" y2="38.2949" gradientUnits="userSpaceOnUse">
<stop stop-color="#7BAFD5"/>
<stop offset="1" stop-color="#3A5F7E"/>
</linearGradient>
<linearGradient id="paint4_linear_188_949" x1="56.2762" y1="30.843" x2="56.2762" y2="38.2949" gradientUnits="userSpaceOnUse">
<stop stop-color="#7BAFD5"/>
<stop offset="1" stop-color="#3A5F7E"/>
</linearGradient>
<linearGradient id="paint5_linear_188_949" x1="56.2762" y1="39.9395" x2="56.2762" y2="47.3913" gradientUnits="userSpaceOnUse">
<stop stop-color="#7BAFD5"/>
<stop offset="1" stop-color="#3A5F7E"/>
</linearGradient>
<linearGradient id="paint6_linear_188_949" x1="47.1608" y1="39.9395" x2="47.1608" y2="47.3913" gradientUnits="userSpaceOnUse">
<stop stop-color="#7BAFD5"/>
<stop offset="1" stop-color="#3A5F7E"/>
</linearGradient>
<linearGradient id="paint7_linear_188_949" x1="36.4602" y1="3.32544" x2="36.4602" y2="19.8836" gradientUnits="userSpaceOnUse">
<stop stop-color="#7BAFD5"/>
<stop offset="1" stop-color="#3A5F7E"/>
</linearGradient>
</defs>
</svg>
