<svg width="351" height="333" viewBox="0 0 351 333" fill="none" xmlns="http://www.w3.org/2000/svg">
<g filter="url(#filter0_d_186_889)">
<path d="M220.831 237.665L220.923 237.456C221.637 235.937 222.454 234.493 223.359 233.119L226.618 228.898L292.901 163.189C298.694 157.448 308.041 157.483 313.787 163.258L314.002 163.467C319.748 169.236 319.719 178.578 313.932 184.307L257.756 239.996C256.474 241.266 256.84 243.423 258.469 244.206L258.515 244.229C259.519 244.71 260.713 244.507 261.502 243.73L317.661 188.059C325.512 180.277 325.558 167.578 317.759 159.744L317.55 159.53C316.779 158.759 315.944 158.074 315.074 157.442V86.4854C315.074 77.8108 322.114 70.783 330.806 70.783H331.119C339.811 70.783 346.85 77.8108 346.85 86.4854V164.256C346.85 175.041 343.25 185.513 336.622 194.031L305.391 234.134C295.365 247.012 289.915 262.854 289.915 279.171V324.029H220.187V240.541C220.187 239.544 220.407 238.564 220.831 237.665Z" fill="url(#paint0_linear_186_889)"/>
<path d="M137.019 237.665L136.92 237.456C136.207 235.937 135.395 234.493 134.491 233.119L131.232 228.898L64.9427 163.189C59.1558 157.448 49.8027 157.483 44.0564 163.258L43.8476 163.467C38.0955 169.236 38.1245 178.578 43.9172 184.307L100.088 239.996C101.375 241.266 101.01 243.423 99.3803 244.206L99.3281 244.229C98.3308 244.71 97.1305 244.507 96.3419 243.73L40.1829 188.059C32.3317 180.277 32.2911 167.578 40.0902 159.744L40.2931 159.53C41.0701 158.758 41.9051 158.074 42.7691 157.442V86.4854C42.7691 85.2851 42.6647 84.1138 42.4676 82.9889C41.7138 73.1661 33.4914 65.425 23.4599 65.425H23.0714C12.5413 65.425 4 73.9431 4 84.4559V164.256C4 175.041 7.6009 185.513 14.2286 194.031L45.4596 234.134C55.4853 247.012 60.9359 262.854 60.9359 279.171V324.029H137.657V240.541C137.657 239.544 137.436 238.564 137.019 237.665Z" fill="url(#paint1_linear_186_889)"/>
<path d="M274.166 96.1922L193.636 15.8301L193.775 15.6909L180.919 2.85874C177.121 -0.933506 170.963 -0.956701 167.142 2.81236L154.055 15.6909L154.194 15.8301L73.6578 96.1922C68.2651 101.573 68.2651 110.3 73.6578 115.681L73.8549 115.878C79.2476 121.253 87.986 121.253 93.3844 115.878L173.915 35.5046L254.445 115.878C259.838 121.253 268.582 121.253 273.969 115.878L274.166 115.681C279.558 110.3 279.558 101.573 274.166 96.1922Z" fill="url(#paint2_linear_186_889)"/>
<path d="M170.981 133.355V112.828C170.981 111.17 169.63 109.825 167.971 109.825H147.398C145.74 109.825 144.389 111.17 144.389 112.828V133.355C144.389 135.014 145.74 136.359 147.398 136.359H167.971C169.63 136.359 170.981 135.014 170.981 133.355Z" fill="url(#paint3_linear_186_889)"/>
<path d="M179.859 136.359H200.432C202.09 136.359 203.435 135.014 203.435 133.355V112.828C203.435 111.17 202.09 109.825 200.432 109.825H179.859C178.194 109.825 176.849 111.17 176.849 112.828V133.355C176.849 135.014 178.194 136.359 179.859 136.359Z" fill="url(#paint4_linear_186_889)"/>
<path d="M176.849 145.219V165.746C176.849 167.404 178.194 168.749 179.859 168.749H200.432C202.09 168.749 203.435 167.404 203.435 165.746V145.219C203.435 143.561 202.09 142.215 200.432 142.215H179.859C178.194 142.215 176.849 143.561 176.849 145.219Z" fill="url(#paint5_linear_186_889)"/>
<path d="M167.971 142.215H147.398C145.74 142.215 144.389 143.561 144.389 145.219V165.746C144.389 167.404 145.74 168.749 147.398 168.749H167.971C169.63 168.749 170.981 167.404 170.981 165.746V145.219C170.981 143.561 169.63 142.215 167.971 142.215Z" fill="url(#paint6_linear_186_889)"/>
<path d="M136.636 70.8002H102.529V16.6998C102.529 14.015 104.709 11.8406 107.4 11.8406H131.765C134.456 11.8406 136.636 14.015 136.636 16.6998V70.8002Z" fill="url(#paint7_linear_186_889)"/>
</g>
<defs>
<filter id="filter0_d_186_889" x="0" y="0" width="350.851" height="332.029" filterUnits="userSpaceOnUse" color-interpolation-filters="sRGB">
<feFlood flood-opacity="0" result="BackgroundImageFix"/>
<feColorMatrix in="SourceAlpha" type="matrix" values="0 0 0 0 0 0 0 0 0 0 0 0 0 0 0 0 0 0 127 0" result="hardAlpha"/>
<feOffset dy="4"/>
<feGaussianBlur stdDeviation="2"/>
<feComposite in2="hardAlpha" operator="out"/>
<feColorMatrix type="matrix" values="0 0 0 0 0 0 0 0 0 0 0 0 0 0 0 0 0 0 0.25 0"/>
<feBlend mode="normal" in2="BackgroundImageFix" result="effect1_dropShadow_186_889"/>
<feBlend mode="normal" in="SourceGraphic" in2="effect1_dropShadow_186_889" result="shape"/>
</filter>
<linearGradient id="paint0_linear_186_889" x1="283.519" y1="70.783" x2="283.519" y2="324.029" gradientUnits="userSpaceOnUse">
<stop stop-color="white"/>
<stop offset="1" stop-color="white"/>
</linearGradient>
<linearGradient id="paint1_linear_186_889" x1="70.8283" y1="65.425" x2="70.8283" y2="324.029" gradientUnits="userSpaceOnUse">
<stop stop-color="white"/>
<stop offset="1" stop-color="white"/>
</linearGradient>
<linearGradient id="paint2_linear_186_889" x1="173.912" y1="0" x2="173.912" y2="119.91" gradientUnits="userSpaceOnUse">
<stop stop-color="white"/>
<stop offset="1" stop-color="white"/>
</linearGradient>
<linearGradient id="paint3_linear_186_889" x1="157.685" y1="109.825" x2="157.685" y2="136.359" gradientUnits="userSpaceOnUse">
<stop stop-color="white"/>
<stop offset="1" stop-color="white"/>
</linearGradient>
<linearGradient id="paint4_linear_186_889" x1="190.142" y1="109.825" x2="190.142" y2="136.359" gradientUnits="userSpaceOnUse">
<stop stop-color="white"/>
<stop offset="1" stop-color="white"/>
</linearGradient>
<linearGradient id="paint5_linear_186_889" x1="190.142" y1="142.215" x2="190.142" y2="168.749" gradientUnits="userSpaceOnUse">
<stop stop-color="white"/>
<stop offset="1" stop-color="white"/>
</linearGradient>
<linearGradient id="paint6_linear_186_889" x1="157.685" y1="142.215" x2="157.685" y2="168.749" gradientUnits="userSpaceOnUse">
<stop stop-color="white"/>
<stop offset="1" stop-color="white"/>
</linearGradient>
<linearGradient id="paint7_linear_186_889" x1="119.582" y1="11.8406" x2="119.582" y2="70.8002" gradientUnits="userSpaceOnUse">
<stop stop-color="white"/>
<stop offset="1" stop-color="white"/>
</linearGradient>
</defs>
</svg>
